<svg width="21" height="26" viewBox="0 0 21 26" fill="none" xmlns="http://www.w3.org/2000/svg">
<path d="M0.379422 26V0.619998H11.4674C14.1314 0.619998 16.1954 1.208 17.6594 2.384C19.1234 3.536 19.8554 5.144 19.8554 7.208C19.8554 8.744 19.4114 10.04 18.5234 11.096C17.6354 12.152 16.4234 12.86 14.8874 13.22V12.68C16.0634 12.848 17.0714 13.208 17.9114 13.76C18.7514 14.312 19.3874 15.02 19.8194 15.884C20.2754 16.748 20.5034 17.756 20.5034 18.908C20.5034 20.396 20.1554 21.68 19.4594 22.76C18.7874 23.816 17.8034 24.62 16.5074 25.172C15.2114 25.724 13.6634 26 11.8634 26H0.379422ZM4.80742 22.508H11.2874C11.9354 22.508 12.5114 22.46 13.0154 22.364C13.5434 22.268 13.9874 22.124 14.3474 21.932C14.7314 21.716 15.0434 21.452 15.2834 21.14C15.5474 20.828 15.7394 20.468 15.8594 20.06C15.9794 19.652 16.0394 19.196 16.0394 18.692C16.0394 18.164 15.9794 17.696 15.8594 17.288C15.7394 16.88 15.5474 16.532 15.2834 16.244C15.0434 15.932 14.7314 15.68 14.3474 15.488C13.9874 15.272 13.5434 15.116 13.0154 15.02C12.5114 14.924 11.9354 14.876 11.2874 14.876H4.80742V22.508ZM4.80742 11.384H10.6754C12.2594 11.384 13.4354 11.084 14.2034 10.484C14.9954 9.86 15.3914 8.948 15.3914 7.748C15.3914 6.548 14.9954 5.648 14.2034 5.048C13.4354 4.424 12.2594 4.112 10.6754 4.112H4.80742V11.384Z" fill="#0E1116"/>
</svg>
